# xmcd
#
# Track frame offsets: 
#        150
#        24156
#        49979
#        74090
#        108994
#        152422
#        187136
#        218044
#        245122
#
# Disc length: 3817 seconds
#
# Revision: 2
# Processed by: cddbd v1.5.2PL0 Copyright (c) Steve Scherf et al.
# Submitted via: ExactAudioCopy v1.0b3
#
DISCID=800ee709
DTITLE=Roy Gaines - Superman
DYEAR=2002
DGENRE=Blues
TTITLE0=Got The Boogie
TTITLE1=Happy Birthday Blues (Take 1)
TTITLE2=Stormy Monday Blues
TTITLE3=Superman (Take 2)
TTITLE4=Once I Was A Gambler
TTITLE5=Goin' To Chicago - Route 66
TTITLE6=Happy Birthday Blues (Take 2)
TTITLE7=Superman (Take 1)
TTITLE8=Bumpin' At The Sunset
EXTD=
EXTT0=
EXTT1=
EXTT2=
EXTT3=
EXTT4=
EXTT5=
EXTT6=
EXTT7=
EXTT8=
PLAYORDER=
